<svg width="50" height="50" viewBox="0 0 50 50" fill="none" xmlns="http://www.w3.org/2000/svg">
<path d="M10.1562 42.5L7.49998 39.8437L27.9687 19.375C27.2743 17.8125 27.1962 16.2326 27.7344 14.6354C28.2726 13.0382 29.1666 11.6319 30.4166 10.4166C31.9791 8.88887 33.7587 7.93401 35.7552 7.55207C37.7517 7.17012 39.4791 7.65623 40.9375 9.0104C42.3958 10.434 42.9166 12.1614 42.5 14.1927C42.0833 16.2239 41.0937 18.0208 39.5312 19.5833C38.316 20.7986 36.9184 21.6666 35.3385 22.1875C33.7587 22.7083 32.1875 22.6562 30.625 22.0312L27.6562 25L42.5 39.8437L39.8437 42.5L25 27.6562L10.1562 42.5ZM16.0937 25.9375L10.0521 19.9479C8.28123 18.2465 7.39581 16.1719 7.39581 13.7239C7.39581 11.276 8.28123 9.20137 10.0521 7.49998L22.2916 19.7396L16.0937 25.9375Z" fill="white"/>
</svg>
