<svg width="35" height="34" viewBox="0 0 35 34" fill="none" xmlns="http://www.w3.org/2000/svg">
<path d="M17.5 17C15.1625 17 13.1615 16.184 11.4969 14.5521C9.83229 12.9201 9 10.9583 9 8.66665C9 6.37498 9.83229 4.41317 11.4969 2.78123C13.1615 1.14929 15.1625 0.333313 17.5 0.333313C19.8375 0.333313 21.8385 1.14929 23.5031 2.78123C25.1677 4.41317 26 6.37498 26 8.66665C26 10.9583 25.1677 12.9201 23.5031 14.5521C21.8385 16.184 19.8375 17 17.5 17ZM0.5 33.6666V27.8333C0.5 26.6528 0.809896 25.5677 1.42969 24.5781C2.04948 23.5885 2.87292 22.8333 3.9 22.3125C6.09583 21.2361 8.32708 20.4288 10.5938 19.8906C12.8604 19.3524 15.1625 19.0833 17.5 19.0833C19.8375 19.0833 22.1396 19.3524 24.4062 19.8906C26.6729 20.4288 28.9042 21.2361 31.1 22.3125C32.1271 22.8333 32.9505 23.5885 33.5703 24.5781C34.1901 25.5677 34.5 26.6528 34.5 27.8333V33.6666H0.5ZM4.75 29.5H30.25V27.8333C30.25 27.4514 30.1526 27.1041 29.9578 26.7916C29.763 26.4791 29.5063 26.2361 29.1875 26.0625C27.275 25.125 25.3448 24.4219 23.3969 23.9531C21.449 23.4844 19.4833 23.25 17.5 23.25C15.5167 23.25 13.551 23.4844 11.6031 23.9531C9.65521 24.4219 7.725 25.125 5.8125 26.0625C5.49375 26.2361 5.23698 26.4791 5.04219 26.7916C4.8474 27.1041 4.75 27.4514 4.75 27.8333V29.5ZM17.5 12.8333C18.6688 12.8333 19.6693 12.4253 20.5016 11.6094C21.3339 10.7934 21.75 9.81248 21.75 8.66665C21.75 7.52081 21.3339 6.53991 20.5016 5.72394C19.6693 4.90797 18.6688 4.49998 17.5 4.49998C16.3312 4.49998 15.3307 4.90797 14.4984 5.72394C13.6661 6.53991 13.25 7.52081 13.25 8.66665C13.25 9.81248 13.6661 10.7934 14.4984 11.6094C15.3307 12.4253 16.3312 12.8333 17.5 12.8333Z" fill="white"/>
</svg>
