<svg width="34" height="34" viewBox="0 0 34 34" fill="none" xmlns="http://www.w3.org/2000/svg">
<path d="M17 17C14.7083 17 12.7465 16.184 11.1146 14.5521C9.48262 12.9201 8.66665 10.9583 8.66665 8.66665C8.66665 6.37498 9.48262 4.41317 11.1146 2.78123C12.7465 1.14929 14.7083 0.333313 17 0.333313C19.2916 0.333313 21.2535 1.14929 22.8854 2.78123C24.5173 4.41317 25.3333 6.37498 25.3333 8.66665C25.3333 10.9583 24.5173 12.9201 22.8854 14.5521C21.2535 16.184 19.2916 17 17 17ZM0.333313 33.6666V27.8333C0.333313 26.6528 0.637132 25.5677 1.24477 24.5781C1.85241 23.5885 2.6597 22.8333 3.66665 22.3125C5.81942 21.2361 8.00692 20.4288 10.2291 19.8906C12.4514 19.3524 14.7083 19.0833 17 19.0833C19.2916 19.0833 21.5486 19.3524 23.7708 19.8906C25.993 20.4288 28.1805 21.2361 30.3333 22.3125C31.3403 22.8333 32.1476 23.5885 32.7552 24.5781C33.3628 25.5677 33.6666 26.6528 33.6666 27.8333V33.6666H0.333313ZM4.49998 29.5H29.5V27.8333C29.5 27.4514 29.4045 27.1041 29.2135 26.7916C29.0226 26.4791 28.7708 26.2361 28.4583 26.0625C26.5833 25.125 24.691 24.4219 22.7812 23.9531C20.8715 23.4844 18.9444 23.25 17 23.25C15.0555 23.25 13.1285 23.4844 11.2187 23.9531C9.30901 24.4219 7.41665 25.125 5.54165 26.0625C5.22915 26.2361 4.97741 26.4791 4.78644 26.7916C4.59547 27.1041 4.49998 27.4514 4.49998 27.8333V29.5ZM17 12.8333C18.1458 12.8333 19.1267 12.4253 19.9427 11.6094C20.7587 10.7934 21.1666 9.81248 21.1666 8.66665C21.1666 7.52081 20.7587 6.53991 19.9427 5.72394C19.1267 4.90797 18.1458 4.49998 17 4.49998C15.8541 4.49998 14.8732 4.90797 14.0573 5.72394C13.2413 6.53991 12.8333 7.52081 12.8333 8.66665C12.8333 9.81248 13.2413 10.7934 14.0573 11.6094C14.8732 12.4253 15.8541 12.8333 17 12.8333Z" fill="black"/>
</svg>
